<svg xmlns="http://www.w3.org/2000/svg" width="1186" height="1080" fill="none" viewBox="0 0 1186 1080">
    <mask id="qo1gz819aa" width="1186" height="1080" x="0" y="0" maskUnits="userSpaceOnUse">
        <path fill="#F5FAFC" d="M0 0H1186V1080H0z"/>
    </mask>
    <g mask="url(#qo1gz819aa)">
        <path fill="#fff" d="M1330.5 497.129c-42.38 3.322-79.63 8.336-79.63 8.336s-20.54-30.819-71.9-30.819c-51.36 0-49.65 8.564-49.65 8.564s-27.39-11.982-47.93-8.564c0 0 6.84-23.964-54.79-1.709 0 0 5.14-47.937-35.942-47.937s-29.1 23.964-29.1 23.964-42.801-3.427-66.765 20.546c-23.964 23.964 6.846 34.237 6.846 34.237s-23.964-1.71-27.391 10.273c0 0-30.819-17.119-63.347-10.273-32.527 6.845-39.373 11.982-39.373 11.982s-268.777 3.427-318.423 8.563c-49.646 5.137-15.409 10.273 37.664 10.273 53.074 0 265.359 3.427 321.85-1.709 56.492-5.136 172.903-1.709 251.661-3.427 78.74-1.709 130.11 3.427 255.08-1.709 3.83-.158 7.55-.29 11.16-.412v-30.179h-.02zM-128.443 348.414s-37.367-59.759-127.021-26.146c-89.654 33.612-3.734 67.24-3.734 67.24s-100.87-3.733-112.071 11.199c0 0-44.834-3.733-93.402 3.733-48.569 7.466-190.524 29.88-67.252 29.88 123.287 0 885.398 18.68 1072.189 18.68 186.79 0 201.74 0 194.272-18.68-7.467-18.681-205.473-7.466-239.092-7.466-33.618 0-119.553-14.948-119.553-14.948s-22.418-70.973-119.554-70.973-115.805 22.414-115.805 22.414 41.101-126.999-67.237-123.266C-35.04 243.814-31.306 370.813-31.306 370.813s-29.885-56.011-97.137-22.399zM384.081 509.791S347.03 493.479 227.157 496.1c-119.873 2.621-257.189 18.214-191.8 18.004 65.379-.21 372.697 9.738 348.724-4.313zM156.992 598.408s37.05-16.312 156.923-13.691c119.873 2.62 257.189 18.222 191.801 18.012-65.389-.219-372.706 9.738-348.724-4.321zM654.331 263.976s37.05-16.312 156.923-13.691c119.873 2.621 257.186 18.223 191.796 18.013-65.384-.22-372.701 9.738-348.719-4.322z"/>
        <path fill="#fff" d="M593.495 244C365.131 244 180 428.993 180 656.83c-.009 114.526 46.787 217.989 122.332 293.17h582.327C960.203 874.819 1007 771.356 1007 656.83 1006.99 428.993 821.86 244 593.495 244z" opacity=".5"/>
        <path fill="#fff" d="M593.5 345C424.221 345 287 482.489 287 651.892 287 772.415 356.475 876.801 457.523 927h271.954C830.525 876.801 900 772.415 900 651.892 900 482.498 762.769 345 593.5 345z"/>
        <path fill="#F0F5F9" d="M1179.75 710.71c-1.29-2.528-6.05-.071-7.47-2.676-1.1-2.007-2.23 6.975-3.38 5.003-1.96-3.369.26-8.792-1.73-13.984-2.46-6.424-9.12-12.498-11.39-13.896-1.78-1.095-1.35-6.986-3.73-9.591-2.87-3.155-8.66-3.067-12.17-4.18-5.28-1.669-11.13 3.778-17.08 3.174-3.42-.344-6.88 1.912-10.28 1.681-2.31-.16-4.59-3.611-6.83-3.582-6.22.083-12.05-1.154-16.91.711-2.99 1.148-5.62 5.05-7.74 6.465-1.57 1.054-2.38 7.181-2.38 7.181s-.4-8.235-2.44-9.674c-2.29-1.61-9.18-.941-11.14 1.048-3.51 3.564-3.11 16.335-2.61 23.256-.07.355-.07.752 0 1.202.09.533.16 1.018.22 1.486.11 1.155.19 1.853.19 1.853s-3.86 3.712-5.52 6.086c-1.55 1.747-2.39 5.364-2.76 9.248-1.84 10.545-2.52 25.311-2.52 25.311l-3.46.639-.49 2.522c-.16.462-.29 1.007-.38 1.67-.67 5.014-7.02 31.094-7.02 37.447 0 1.557-.14 3.926-.38 6.631l-1.94 13.475c.02.444.03.888.05 1.338-.58 3.292-1.2 5.761-1.75 6.306-1.67 1.669-3.01-18.389-3.01-23.073 0-4.683-7.69-5.014-9.36-11.367-1.67-6.353-2.67-17.051-3.67-23.404-1-6.353-5.69-3.677-8.69-2.676-3.01 1.001-1.34 6.015-4.35 4.346-3.01-1.67-4.35.337-5.35 4.014-1 3.676-1 21.065-1.67 26.749-.67 5.684-2.008 13.706-4.346 14.043-2.339.332-3.345 10.03-3.345 10.03s-.338 13.706-.669 14.712c-.338 1.001-5.014-.331-6.352.338s-1.338 14.043-2.007 17.388c-.669 3.345.331 8.023-2.007 6.353s-4.683-21.728-5.352-24.073c-.669-2.338-3.344-3.007-9.697-2.338-6.352.669-4.682 5.352-5.351 10.366-.669 5.015-1.338 3.346-3.677 3.677-2.338.332-4.676 6.015-4.676 12.368 0 6.353-3.008 18.721-3.008 26.412 0 7.69-.331 13.706-1.669 22.403-.817 5.328-2.013 12.658-2.818 17.542l-390.004.107-6.523-41.633s-5.275-39.691-6.282-41.45c-1.006-1.758-5.274-32.906-5.274-35.671 0-2.765-.504-11.054-.504-14.067 0-3.014-2.51-4.02-3.267-8.04-.752-4.02-3.517-2.262-3.517-2.262s-1.006 3.765-1.255 6.53c-.249 2.765-1.006 5.027 0 7.786 1.007 2.765-1.006 6.027-1.006 6.027s-2.765 1.51-3.694 1.764c-.93.255-.326-6.281-1.332-10.302-1.007-4.02-1.255-5.778-2.51-5.778s-2.262-5.524-3.014-8.543c-.752-3.014-.752-10.302-1.255-14.571-.503-4.268-4.771-3.517-6.026-3.765-1.255-.249-2.262-5.275-3.268-6.779-1.007-1.504-9.543-2.511-14.569-1.255-5.026 1.255-6.027.752-7.033-.504-1.007-1.255-6.281 1.759-8.288 2.511-2.013.752-1.007 6.281-1.255 8.04-.249 1.758.248 6.027.248 9.798 0 3.766-.248 19.591-.248 22.859 0 3.269-4.02 3.517-4.772 2.765-.752-.752.249-10.805-.752-12.06-1.006-1.255-3.516-.752-3.516-.752l-.249-5.275s0-6.785.249-9.041c.249-2.261-2.007-2.013-5.523-2.261-3.517-.249-5.275 1.51-6.282 1.51-1.006 0-.751 3.013-1.758 6.027-1.006 3.013 0 2.51-.248 5.275-.249 2.765-.249 12.06-.249 12.06s-2.51 3.014-3.517 3.014c-1.006 0-.503 2.261-1.758 5.523-1.255 3.269-.379 5.276-.379 8.792 0 2.025-.136 3.932-.248 5.187-.782 1.024-1.439 2.119-1.753 3.215-1.16 4.055-5.215 12.776-7.536 13.356-2.32.581-10.431.592-16.227 5.808-5.795 5.216-6.375 6.383-5.795 9.284.58 2.901-4.055 5.684-4.055 5.684l-5.216 4.529h-7.518l-24.349 16.127s-29.559-5.926-45.845-3.262l-26.243-4.665c-.805-4.885-1.995-12.214-2.818-17.543-1.338-8.691-1.669-14.712-1.669-22.403 0-7.691-3.008-20.059-3.008-26.412 0-6.352-2.338-12.036-4.677-12.368-2.338-.331-3.007 1.338-3.676-3.676-.669-5.015 1.001-9.698-5.352-10.367-6.352-.669-9.028 0-9.697 2.338-.669 2.339-3.007 22.398-5.351 24.073-2.339 1.67-1.338-3.007-2.007-6.352-.669-3.346-.669-16.72-2.007-17.389-1.338-.669-6.015.669-6.352-.338-.332-1-.669-14.712-.669-14.712s-1.007-9.698-3.345-10.029c-2.338-.332-3.676-8.36-4.345-14.044-.669-5.684-.669-23.066-1.676-26.749-1-3.677-2.338-5.684-5.351-4.014-3.008 1.67-1.338-3.345-4.346-4.346-3.007-1-7.69-3.676-8.69 2.676-1.001 6.353-2.007 17.052-3.676 23.404-1.67 6.353-9.36 6.685-9.36 11.368 0 4.683-1.338 24.742-3.007 23.066-.545-.545-1.161-3.013-1.747-6.305.012-.444.024-.888.042-1.338l-1.93-13.475c-.237-2.706-.379-5.074-.379-6.631 0-6.353-6.352-32.433-7.021-37.448-.089-.663-.219-1.208-.379-1.664l-.491-2.528-2.037-.378c-.177.201-.355.331-.533.378-3.593.918-15.575 1.771-20.714 3.482-5.132 1.711-5.991 6.85-11.129 17.122-5.139 10.272-13.693 10.272-19.69 12.842-1.196.515-2.534 1.231-3.902 2.095-.171-9.952-.544-19.182-1.379-23.001-2.113-9.727-4.653-7.614-5.92-7.614-1.267 0-2.113-3.807-3.38-10.148-1.267-6.34-3.807-47.364-7.187-60.898-3.38-13.534-9.3-10.995-11.84-13.534-2.54-2.54-2.54-9.728-2.54-14.802s-5.499-13.108-8.88-14.381c-3.38-1.267-19.027-2.54-22.833 1.267-3.807 3.807.42 19.029-3.878 20.373-4.298 1.344-6.275 10.497-6.275 10.497 0 2.114.846 9.301.846 14.801s-2.113 17.762-2.113 17.762-2.54 5.074-2.54 8.881c0 3.807 1.694 16.068.847 18.608-.847 2.54-5.92 4.227-8.033 3.807-2.114-.421-1.694-18.188-2.54-23.262-.847-5.074 1.267-21.142 0-24.949-1.267-3.807-4.227-3.807-5.92-4.227-1.693-.421-7.187 1.267-10.147 1.267s-5.92 3.38-5.92 3.38v3.807c0 3.807-3.807 3.381-5.5 2.96-1.693-.42-3.806 1.694-3.806 5.501 0 3.806-.42 10.574-.42 10.574s-5.92.846-8.46 1.267c-2.54.42.42 7.613-2.96 10.994-3.38 3.381-1.693 6.767-2.96 10.574-1.267 3.807-.42 8.034-.42 11.421 0 3.38.254 15.648-5.074 15.222V1011h1184V736.08c.02 0-.65-14.411-6.25-25.37z"/>
        <path fill="#DDE6ED" d="M1184.14 953.995c1.21-1.303 1.86-2.315 1.86-2.954 0-6.075-85.81-77.75-111.76-78.963-25.96-1.213-56.01 27.94-88.799 47.379-12.939 7.668-32.069 8.712-50.493 7.162-40.449-13.77-72.548-26.036-79.783-30.435-20.168-12.261-74.629-27.201-98.835-27.201-24.206 0-125.052 30.492-147.242 26.906-22.184-3.586-64.542-37.67-78.661-39.463-6.428-.817-14.327 2.078-20.388 3.465-13.123 2.995-26.489 5.363-39.345 9.218-8.373 2.511-16.195 6.186-24.456 8.934-8.574 2.853-17.535 4.81-26.649 5.627-16.195 1.45-32.722.849-48.988 1.471-9.227.354-18.709-.084-27.758-1.809-56.477-10.763-185.562-84.305-256.158-104.039-23.495-6.566-55.256-2.6-86.685 5.622V954h1184.14v-.005z"/>
        <path fill="#C0CED9" d="M1283.64 788.077c-9.98 5.244-15.13 3.793-28.58 17.405-2.99 11.702-14.73 17.333-26.15 19.886-8.35 6.898-16.36 13.993-24.06 21.068-6.79 13.408-15.13 14.136-22.32 20.969-7.95 17.398-14.13 13.421-20.9 19.57-6.78 6.15-13.38 11.847-19.86 16.887-12.74 15.994-2.84 3.859-19.14 12.91-10.63 5.893-7.18 2.349-17.56 4.955-10.38 2.612-34.58 11.38-44.64 11.577-1.61.591-3.14 1.076-4.61 1.47-2.1.919-4.41 1.437-6.83 1.437-.67 0-1.34-.006-2.01-.019-.85.039-1.69.059-2.49.039.01 0 .02-.006.02-.006-.01 0-.03.006-.04.006-.17-.006-.35 0-.52-.006l-.27-.145c-5.88-.295-11.6-1.188-16.69-3.432-1.05-.25-2.1-.46-3.16-.611-9.68-1.332-12.17-6.668-21.4-8.656 0 0-7.606 2.133-22.466-1.753-.743-3.065-1.486-7.18-1.63-9.51-.25-3.977.749-5.716 6.226-6.963 5.484-1.24 11.71-1.24 11.211-4.975-.5-3.734 2.492-18.652-.5-20.883-2.985-2.238-4.734.249-4.234 4.725.499 4.476.749 10.193-1.993 9.694-2.741-.499-1.242-4.975-1.742-16.907-.5-11.931-.993-14.917-5.727-14.425-4.734.499.5 13.428.75 17.904.25 4.476-2.492 9.7-6.509 9.575-4.018-.118-2.46-13.802-2.21-23.502s2.492-24.369-4.234-27.105c-6.726-2.737-5.727 4.226-5.727 14.668s1.992 22.38 2.742 28.346c.75 5.966-.75 11.931-2.992 11.931s-1.992-4.974-1.492-8.952c.499-3.977.25-5.716-3.242-5.965-3.491-.25-1.242 6.464-.499 11.19.749 4.725.749 7.462-1.493 7.462s-2.742-5.966-2.992-10.941c-.249-4.975.001-13.428-1.742-20.89-1.742-7.462-6.976-5.966-8.219 2.986-1.242 8.952.75 31.083 3.735 35.309 2.992 4.227 4.234 3.978 9.001 3.026 4.767-.952 7.936-.046 8.686.702.552.551.151 5.087-.198 10.232-4.983-.834-9.862-1.496-14.636-1.89-8.106-.67-9.586 6.176-23.341.748-7.443 1.313-13.597 3.826-20.303 7.987-11.027 4.01-10.086 12.444-30.265 10.206-12.552 2.677-27.582 4.666-44.223 6.064-16.642 1.398-34.887 2.205-53.87 2.533-18.982.322-38.693.164-58.267-.387-19.574-.545-39.01-1.477-57.426-2.684-18.417-1.208-35.821-2.704-51.331-4.378-15.511-1.673-29.134-3.524-39.989-5.447-10.856-1.93-23.401-5.907-23.401-5.907-12.479-8.65-8.212-.23-11.73-2.166-3.517-1.936-6.798-7.554-10.283-9.253-3.491-1.707-10.954-2.311-15.32-3.597-4.372-1.286-11.802-7.685-11.802-7.685-20.639 9.831-16.483.341-25.333.459-8.85.112-12.21 7.968-28.661 4.174-18.778 6.143-41.054.315-41.054.315-3.426.243-6.555.519-9.429.84 1.513-.4 2.808-.643 3.65-.649 2.669-.027-2.788-.263-9.113 1.338-2.979.42-5.642.886-8.088 1.379 4.189-6.695 13.736-9.648 13.736-9.648s-10.757 2.441-16.754 10.291c-.341.079-.67.157-1.006.243 1.486-2.79 5.471-8.821 9.712-13.002-3.406 2.56-7.634 6.261-11.434 11.118-3.61 4.607-2.334 1.641.177-3.039.231-.019.447-.039.645-.039 1.453-.013.999-.079-.631.013 3.103-5.789 8.087-14.176 8.087-14.176-.309.525-7.91 9.766-10.468 14.373-.217.02-.44.046-.664.072.809-4.292 3.794-17.129 2.933-25.543 0 0-1.499 18.193-5.464 22.964 0 0 .026-2.579-.46-5.631 1.387-.565 2.275-.84 2.275-.84s-.875.197-2.308.656c-.355-2.146-.96-4.509-2.019-6.36 0 0 .539 3.124.77 6.78-.73.256-1.539.564-2.413.925-.612-2.126-1.401-4.403-2.387-6.471 3.866-2.737 6.522-4.102 6.522-4.102-2.077.407-4.366 1.858-6.647 3.846-.441-.892-.914-1.745-1.427-2.52 0 0 .467 1.122.98 2.927-.428.387-.862.794-1.289 1.214.46-.347.914-.676 1.348-.991.493 1.792.999 4.207 1.151 6.865-.467.217-.954.453-1.44.696-.48-1.733-1.085-3.774-1.808-5.815.249-.256.499-.505.749-.755-.263.197-.533.401-.802.611-1.019-2.868-2.242-5.704-3.616-7.646l.434-.735c-.046.079-.224.308-.493.656-.382-.538-.783-1.004-1.184-1.378 0 0 .348.604.861 1.785-1.551 1.989-5.043 6.36-8.087 10.553-1.039-.728-1.847-1.188-2.235-1.174 0 0 .716.676 1.795 1.778-2.006 2.796-3.761 5.447-4.544 7.187-2.347 5.211 4.951-19.171 3.498-33.465 0 0-1.894 23.029-6.91 29.061 0 0 .118-9.641-3.169-15.41 0 0 2.373 13.664.171 19.938 0 0-1.979-13.992-7.226-21.894 0 0 4.102 9.772 2.426 19.479 0 0-4.234-19.689-9.981-24.979 0 0 4.99 8.591 6.766 26.128 0 0-3.873-7.627-9.048-11.781 0 0 7.693 9.11 8.39 14.314 0 0-15.615-14.583-18.075-14.517 0 0 16.057 15.226 16.096 22.196 0 0-9.251-9.234-19.547-10.403 0 0 14.327 3.676 17.252 13.126 0 0-4.26-.275-9.159.847 0 0 6.562-.847 6.944 1.647 0 0-3.202 1.359-5.832 2.645-16.957-.846-28.404-5.473-28.404-5.473s-34.894 4.049-47.531-.079c-12.631-4.135-20.724-12.516-30.626-19.026-1.605-1.057-3.262-1.956-4.945-2.77-1.538-5.06-1.966-2.947-1.966-2.947l-13.741-7.482v-19.761c0-2.218 3.78-1.129 5.371-2.664 1.644-1.595 1.999-3.046 1.999-5.336 0-4.575 9.067 1.142 9.067-5.717v-70.027c0-1.969-5.26-3.938-5.26 0v64.967c0 4.306-6.575 3.912-6.575.768v-79.445c0-1.162-4.602-2.028-4.602.774v88.411c0 1.312-4.603 1.312-4.603 0V755.446c0-4.595-4.602-4.595-4.602 0v85.418c0 1.391-5.918 1.673-5.918.288v-51.73c0-4.003-5.365-4.003-5.365.289 0 9.064.072 48.278.072 55.156 0 4.089 9.238 1.713 9.238 4.003v6.288c0 2.671.138 3.071-5.589 3.071-5.345 0-5.588-1.64-5.588-3.071v-43.27c0-3.282-4.603-3.282-4.603 0v47.267c0 10.094 15.418 4.108 15.418 9.72 0 2.953-.21 8.21-.342 11.951-7.758-7.797-15.352-18.423-23.262-25.911-8.712-8.256-19.731-11.754-29.988-19.374-10.257-7.62-16.951-20.3-30.173-26.285-13.222-5.986-31.106-8.092-48.714-11.439-1.854-.355-3.715-2.553-5.576-2.855-1.86-.302-3.721 2.231-5.582 1.982-1.86-.25-3.728-3.295-5.589-3.498-1.86-.204-3.728-2.258-5.589-2.416-1.86-.157-3.728 1.589-5.588 1.477-1.861-.111-3.728.742-5.59.676-1.86-.066-3.72-2.92-5.588-2.947-1.86-.033-3.61 1.838-5.582 1.858V1037h1315V774.439c-10.52 3.774-16.36 8.348-31.36 13.638zM360.277 902.018c-.519.295-1.045.61-1.578.945-.671-.991-1.466-2.08-2.367-3.124.914-1.148 1.874-2.29 2.86-3.367.395 1.654.763 3.492 1.085 5.546zm-5.049 11.479c.48.617.9 1.28 1.242 1.988-1.887.164-3.524.453-3.524.453-.151-.623.756-1.483 2.282-2.441zm-2.913-.23c.223-.669.486-1.313.789-1.936.302.256.598.518.881.794-.572.361-1.131.735-1.67 1.142zm2.715-1.759c-.46-.335-.96-.676-1.479-1.017.559-1.004 1.216-1.949 1.94-2.835.664.918 1.275 1.831 1.781 2.717-.769.348-1.518.722-2.242 1.135zm-1.006-8.63c.638-.873 1.302-1.759 2.006-2.645.677.932 1.407 2.002 2.084 3.111-.664.433-1.322.892-1.979 1.385-.677-.598-1.387-1.221-2.111-1.851zm2.433-14.997c.71 1.654 1.716 4.371 2.637 8.145-1.131.906-2.308 1.897-3.505 2.98-.592-.631-1.216-1.228-1.874-1.753 0 0 .678.801 1.591 2.015-.861.781-1.735 1.608-2.61 2.481-.993-.84-1.972-1.647-2.873-2.35 2.604-4.64 5.359-9.345 6.634-11.518zm-9.737 20.575c-3.867 4.936-3.301 3-1.105-1.312.493.183 1.039.4 1.63.656-.177.223-.348.44-.525.656zm-.967-1.581c.966-1.884 2.216-4.174 3.537-6.537.717.755 1.506 1.608 2.308 2.52-1.361 1.411-2.722 2.94-4.05 4.568-.585-.21-1.184-.394-1.795-.551zm4.307 3.819c-2.755 3.662-2.341 2.055-.178-1.581.322.183.644.38.967.577-.27.328-.533.663-.789 1.004zm.151-2.126c.749-1.234 1.676-2.652 2.728-4.161.48.571.96 1.155 1.421 1.746-1.059.912-2.085 1.91-3.038 2.999-.368-.203-.736-.394-1.111-.584zm3.281 9.858c-.934-.105-.947-.105-.947-.105s-1.052-.289-.848-.401c.368-.197.749-.367 1.137-.525.783.085 1.519.276 1.966.65-.427.125-.868.256-1.308.381zm1.295-1.648c.697-.164 1.387-.282 2.058-.361.039.118.092.237.125.361 0-.006-.848-.059-2.183 0zm1.808-4.069c.467-.249.96-.505 1.479-.761.441.984.704 1.897.704 2.678.007 0-.809-.814-2.183-1.917zm.671-6.963c.473-.46.966-.899 1.466-1.319.815 1.47 1.453 2.933 1.611 4.134 0 0-1.282-1.201-3.077-2.815zm2.071-1.818c.362-.289.73-.565 1.098-.834.158 1.109.309 2.251.427 3.466 0 0-.565-1.11-1.525-2.632zm4.063 1.726s-.348-1.602-.96-3.912c.428-.269.848-.518 1.263-.754.046 1.509-.027 3.084-.303 4.666zm3.879 1.647l-.118.02c-.131-.84-.631-3.846-1.611-7.351.822-.42 1.598-.781 2.302-1.096.17 2.96.124 6.209-.573 8.427zm4.991.158c-.434.964-.447.636-.23-.571.197-.046.394-.099.585-.138-.138.249-.256.492-.355.709z"/>
        <path fill="#7B90A0" d="M1414.73 980.265c-14.53 8.917-31.39 18.693-31.39 18.693l-15.47 15.272s-29.69 25.51-41.77 27.67c-2.08.37-5.9.54-5.9.54s-5.22-2.79-5.29-4.46c1.76-.7 3.2-3.14 3.2-3.14s-2.69 2.65-4.03 1.04c7.6-4.36 10.85-20.71 10.85-20.71s-7.05 21.36-12.52 19.14c1.39-2.53 2.13-7.51 2.13-7.51s-1.33 5.61-4.36 6.72c6.03-5.76 2.88-18.08 2.88-18.08s2.5 12.14-5.1 17.03c.68-2.92-.07-6.42-1.33-9.73 1.93-4.46 4.58-8.44 4.58-8.44s-2.45 3.63-4.84 7.78c-2.39-5.93-6.26-11.1-6.26-11.1s4.11 6.08 5.74 12.02c-1.57 2.78-3.04 5.7-3.68 7.84.44-3.84-1.18-8.53-3-12.41.24-1.55.45-2.56.45-2.56s-.27.85-.6 2.24c-2.01-4.2-4.22-7.39-4.22-7.39s2.2 3.79 3.96 8.53c-.91 4.11-1.97 11.22-.25 17.15-3.63-3.77-7.13-12.75-7.13-12.75s4.36 14.25 8.87 15.9c-.16.67-.86 1.55-1.75 2.43l-6.21-6.04s-3.67-22.75 1.17-31.33c2.49-4.4 25.08-8.256 27.5-15.276 1.87-5.394 0-80.126 0-139.501 0-4.467-4.47-6.591-4.47.32 0 10.864-1.43 75.128-1.43 126.85 0 7.737-3.86 9.566-7.58 11.168-12.03 5.191-10.86 2.933-10.86 2.933l-.41-35.609s-1.87-10.94 4.99-16.713c4.29-3.615 3.72-10.097 3.72-10.097s.54-201.109-.1-204.304c-.64-3.194-7.84-3.834-9.75-1.272-1.91 2.553-.38 198.556-.38 201.649 0 3.102-1.36 4.922-3.06 5.984-2.84 1.77-6.42 3.337-6.58 8.141-.67 20.691.27 35.912.27 36.738 0 3.869-4.65 4.593-4.65.531 0-5.495 2.02-281.126.74-283.039-1.28-1.913-5.76-3.194-9.48 0-3.33 2.857.67 183.496.67 229.201 0 15.516.08 28.411-3.14 28.411-2.75 0-3.46-12.052-3.46-28.082 0-19.983-.16-150.02-.16-152.919 0-3.194-6.8-3.91-6.8 2.402v175.405c0 11.495 7.57 10.56 7.57 13.409v18.55c0 5.394-15.51 4.669-15.51-.236 0-5.268.04-187.743.04-188.46 0-4.214-1.03-6.287-4.14-7.02-5.61-1.332-5.1 7.02-5.1 7.661 0 .64 1.91 164.717 1.91 188.982 0 7.998 3.21 10.914 7.27 11.959-4.27 4.602-17.58 18.214-21.91 13.854 7.85-8.005 5.99-11.856 5.99-11.856s.14 6.576-10.99 8.566c14.69-17.711 18.83-33.724 18.83-33.724s-11.13 26.869-25.68 30.299c2.8-3.81 3.58-7.527 3.16-10.948 2.09-8.959 2.79-20.733 3.02-28.706-.37 6.338-1.44 15.212-4.4 23.826-3.41-7.628-11.49-12.895-11.49-12.895s10.1 8.597 8.2 20.598c-1.41 2.731-3.08 5.343-5.04 7.72-.43-1.424-.74-2.259-.74-2.259s.28.86.72 2.284c-1.3 1.565-2.71 3.045-4.28 4.385-3.28-8.287 4.29-16.437 4.29-16.437s-10.56 11.151-7.71 17.577c-.04.11-.1.23-.18.34-1.71-4.11-3.2-8.191-4.3-11.326 5.75-25.461 4.48-65.604 4.48-65.604s.5 44.618-11.98 73.16c-6.26-2.853 3.76-60.012 3.76-60.012s-10.45 37.404-8.56 61.582c-.55-7.078-1.65-27.288-2.41-41.49.65 19.393.37 52.14-7.94 63.83-.99 1.41-1.62-9.81 2.28-24.19 4.6-15.915 4.88-36.302 4.88-36.302s-2.83 35.832-11.98 34.867c.57-26.152-6.28-50.872-6.28-50.872s9.27 49.161-6.42 53.447c1.14-1.66-1.04-8.096-4.46-15.967.73-7.948-.4-14.699-.9-17.101.35 1.896.85 6.608-.63 13.67-1.54-3.379-3.23-6.919-4.95-10.391-.08.387-6.44-14.834-.25 1.154 1.72 3.945 3.35 7.931 4.64 11.622-1.42 5.555-4.04 12.331-8.72 20.163-.04-7.158.96-15.679 2.36-24.056-2.82 12.853-5.79 26.846-7.91 38.026-.04-.01-.07-.02-.11-.02 1.58-23.03-2.34-56.826-2.34-56.826s2.69 29.953.25 43.376c-.35.06-.69.15-1.01.23-1.82-2.26-3.46-4.58-4.95-6.927 2.84-4.054 6.31-7.72 6.31-7.72s-3.36 3.244-6.67 7.155c-.59-.944-1.15-1.896-1.69-2.849-.07-11.9.16-23.354.16-23.354s-1.47 8.496-2.58 18.744c-8.97-18.457-9.5-36.072-9.5-36.072s-.62 16.486 9.14 39.528c-.22 2.267-.41 4.585-.56 6.875-.89-1.532-1.75-3.209-2.6-4.962.21-2.748.66-4.905.66-4.905s-.44 1.635-1.02 4.155c-6.52-13.755-11.59-32.086-11.59-32.086s3.38 17.05 10.88 35.272c-.43 2.006-.86 4.256-1.24 6.586-.22-.36-.44-.7-.65-1.05-.66-3.63-2.15-8.773-3.04-11.731.64 2.276 1.48 5.874 1.55 9.301-1.96-3.258-3.38-5.82-3.38-5.82s1.14 3.354 3.31 7.84l-.03.34c-3.98-1.51-9.39-18.808-9.39-18.808 2.35 10.594 5.64 16.508 6.62 18.118-3.09-4.894-13.75-7.962-13.75-7.962s14.07 6.322 14.05 12.262c-5.56 1.8-10.14-8.048-10.14-8.048s.9 5.498 6.98 10.608c-9.24-4.44-12.77-3.31-12.77-3.31s10.82 1.51 11.65 5.57c-1.21-2.41-7.75-1.05-7.75-1.05s5.26.26 5.63 1.32c-119.13-25.645-257.264-61.06-348.613-79.989-119.698-24.804-264.69 27.896-356.653 53.846 8.389-11.925 25.807-17.64 25.807-17.64-14.978 2.681-28.104 14.977-32.514 19.511-.521.144-1.043.287-1.556.43.95-13.299 26.497-41.044 26.497-41.044-4.443.16-30.957 28.529-30.957 28.529.656-9.566 13.505-27.046 13.505-27.046-8.86 8.167-14.986 22.511-14.986 22.511 1.203-32.17 9.222-48.402 9.222-48.402-9.761 10.299-15.146 46.675-15.146 46.675-4.14-17.505 2.146-35.786 2.146-35.786-8.566 15.002-10.535 40.733-10.535 40.733-4.696-11.184-1.978-36.367-1.978-36.367-5.267 10.889-3.955 28.444-3.955 28.444-9.744-10.425-15.811-52.194-15.811-52.194-.984 26.219 14.987 69.843 10.148 60.614-4.838-9.237-26.422-32.557-27.271-33.813 0 0 41.332 61.188 21.406 38.592-9.374-10.636-19.547-18.559-27.701-23.978 17.006 14.926 33.154 41.66 21.937 28.428-14.818-17.48-40.011-21.601-40.011-21.601s28.408 6.928 36.225 26.548c-19.211-12.878-52.364-9.566-43.142-10.055 9.222-.497 43.142 10.055 42.317 15.002 0 0-15.887-1.82-16.467 1.981 0 0 10.669-2.377 18.933 1.483.387.177-1.481.826-1.481.826s-.026 0-2.55.447c-8.229.815-15.138.665-20.473-.742-45.641-12.027-.564 54.287-201.513-8.495.413-.607.85-1.298 1.296-2.116.623-1.154-1.557-2.368-.168-4.509 1.885-2.916 2.246-5.697 2.289-7.189-.085.969-.438 1.896-.926 2.714-1.203 2.031-3.122 3.447-3.122 3.447-2.979-4.913 11.823-16.333 11.823-16.333-2.441.657-7.161 4.947-11.167 8.942 1.574-3.077 1.944-6.313 1.658-9.398 1.877-1.247 3.172-1.887 3.172-1.887-1.127.084-2.229.379-3.298.809-1.102-7.729-6.075-14.227-6.075-14.227 3.5 5.714 4.813 10.636 4.804 14.808-1.784.936-3.467 2.25-4.998 3.734-1.085-21.542-.942-46.624 3.686-46.767 15.987-.523 23.981-13.856 23.981-13.856V696.156c-6.731-5.698-10.097-.076-10.097-.076v194.831s-.833 5.95-7.22.615-2.533-298.437-4.662-302.701c-2.129-4.265-2.053-8.521-8.44-5.327-5.982 3.001 3.863 266.79-2.549 292.689-.547 2.208-4.132 2.057-5.192 2.048-5.646-.05 1.304-153.508-3.29-156.18-6.547-3.809-7.355 4.265-7.355 4.265v102.004c0 13.94-6.159 17.151-6.159-.75 0-47.964-1.96-191.847-1.96-191.847l.412-15.432c-4.78-7.872-9.265-.556-9.265-.556s-.143 180.124-.143 209.875c0 29.751 10.855 29.936 10.855 29.936s3.694 35.685-.21 43.143c-3.896 7.459-17.587-4.77-17.587-7.973 0-3.194.598-238.884.598-238.884s1.817-7.686-6-7.686c-5.36 0-5.865 9.33-5.865 9.33s-1.06 193.6 0 233.482c1.06 39.881 28.71 36.923 28.71 36.923s-.142 10.012-.193 22.545c-5.15-3.793-10.745-5.049-10.745-5.049 4.922 2.116 8.355 4.56 10.737 7.08-.025 6.97-.017 14.572.059 21.593-4.317-.338-4.14-18.888-4.14-18.888-4.477 6.802-3.534 14.227-.387 21.054-30.007-10.131-69.11-22.495-107.699-37.539-34.971-13.628-68.495-23.7-100.546-30.796-2.928-1.905-14.642-6.085-14.642-6.085.362-4.079 10.981-3.371 10.981-3.371-7.977-1.323-14.784-.438-14.784-.438 3.736-15.618 26.355-23.026 26.355-23.026-16.401 2.933-30.31 18.845-30.31 18.845-.648-11.31 23.569-37.614 23.569-37.614-3.954.143-27.524 25.377-27.524 25.377.589-8.504 12.008-24.054 12.008-24.054-7.876 7.257-13.32 20.017-13.32 20.017 1.068-28.605 8.204-43.042 8.204-43.042-8.684 9.153-13.472 41.499-13.472 41.499-3.677-15.566 1.902-31.815 1.902-31.815-7.615 13.341-9.374 36.215-9.374 36.215-4.174-9.945-1.759-32.339-1.759-32.339-4.687 9.676-3.517 25.301-3.517 25.301-8.667-9.27-14.052-46.413-14.052-46.413-.396 10.535 2.288 24.231 4.947 35.322-2.171.32-4.619 1.669-7.102 3.574-1.943-2.318-3.896-4.585-5.688-6.633.118-.169.185-.27.185-.27-.025.042-.101.126-.202.244-3.946-4.525-7.068-7.972-7.363-8.411 0 0 2.744 4.054 6.362 9.541-1.422 1.593-3.896 4.349-6.454 7.324-1.717-1.273-3.383-2.444-4.965-3.506 1.574-6.751 3.004-14.572 2.802-20.733 0 0-1.598 10.619-4.325 19.519-2.255-1.905-4.518-3.557-6.706-4.796-.143-.362-.286-.716-.455-1.053 0 0 .034.312.076.843-2.078-1.138-4.089-1.905-5.957-2.158 0 0 2.314 1.02 6.033 3.11.202 2.756.471 8.218-.025 13.038-.783-.252-1.532-.472-2.222-.674-.824-5.048-2.373-11.85-5.116-16.721 0 0 2.516 7.484 1.868 15.87-.656-.152-1.203-.27-1.624-.363-1.27-6.624-3.896-17.749-7.733-21.837 0 0 4.586 9.406 5.192 27.99 0 0-3.501-8.302-8.591-13.047 0 0 7.371 10.139 7.724 15.668 0 0-15.239-16.468-17.805-16.57 0 0 12.891 14.143 14.936 22.251-.884.008-1.523.033-1.885.05-3.282-3.16-9.955-8.74-17.477-10.122 0 0 14.675 4.88 17.048 15.044 0 0-4.418-.598-9.61.236 0 0 6.9-.43 7.128 2.225 0 0-3.324 1.163-6.135 2.318-4.215-.059-9.222-.084-12.588-.059V1082h1682.92V966.806c-1.68 2.064-10.6 7.576-20.19 13.459zm-1641.037-95.709c.235-.008.555-.017 1.018-.042.261-.017.539-.017.841-.017.202.818.295 1.568.261 2.242 0 .009-.782-.885-2.12-2.183zm9.02-9.355s-.294-2.065-.875-5.09c.413.118.951.278 1.591.48-.118 1.525-.337 3.068-.716 4.61zm4.839 2.883s-.194-2.638-.774-6.33c.656.244 1.346.514 2.07.809-.253 2.09-.657 4.02-1.296 5.521zm29.737-4.83c-1.624.573-3.425 1.298-5.276 2.208-1.153-1.045-2.306-2.039-3.45-3 1.607-1.753 3.315-3.464 5.032-4.964 1.237 1.905 2.482 3.852 3.694 5.756zm-10.089 11.21c-1.431.615-2.811 1.331-4.081 2.174.58-1.441 1.363-2.764 2.272-3.97.614.573 1.22 1.172 1.809 1.796zm-3.644-6.043c1.052-1.357 2.239-2.815 3.501-4.265.791.919 1.556 1.829 2.297 2.739-1.338.784-2.667 1.66-3.955 2.663-.606-.404-1.228-.775-1.843-1.137zm3.534 2.258c.968-1.003 2.028-1.913 3.122-2.739 1.237 1.534 2.39 3.034 3.433 4.442-1.051.244-2.112.531-3.155.859-1.111-.901-2.247-1.761-3.4-2.562zm5.722-4.492c1.633-.994 3.265-1.812 4.771-2.478 1.667 2.621 3.24 5.158 4.586 7.4-1.203.093-2.516.228-3.887.422-1.818-1.888-3.644-3.667-5.47-5.344zm-3.786-15.659c1.422 2.157 2.979 4.526 4.552 6.961-1.826 1.206-3.82 2.622-5.89 4.257-1.363-1.121-2.71-2.183-4.031-3.186 2.171-3.287 4.191-6.288 5.369-8.032zm-6.059 9.085c1.069 1.121 2.112 2.276 3.122 3.422-1.531 1.273-3.096 2.663-4.653 4.18-.85-.463-1.692-.893-2.525-1.298 1.263-2.014 2.668-4.197 4.056-6.304zm-5.511-5.377c1.464 1.307 2.92 2.714 4.342 4.164-1.868 2.191-3.728 4.458-5.192 6.43-.572-.253-1.128-.489-1.683-.725.715-2.612 1.649-6.059 2.533-9.869zm-6.454 9.288v-.034c.008 0 .017.009.017.009 0 .008-.009.017-.017.025zm.05-.893c.101-2.251.185-8.378-1.397-13.35 1.818 1.036 3.93 2.309 6.252 3.826-1.228 3.97-2.675 7.585-4.316 9.726-.185-.068-.362-.135-.539-.202zm3.568 2.621c.404.21.808.429 1.22.657-.665.944-1.212 1.795-1.59 2.503-.926 1.728-.539.194.37-3.16zm3.467 1.963c.681.422 1.355.852 2.028 1.307-.842.851-1.675 1.736-2.491 2.663-5.158 5.79-3.24 2.006.463-3.97zm4.216 2.874c.429.321.849.658 1.262 1.003-.917.826-1.801 1.72-2.626 2.689-3.66 4.273-2.288 1.272 1.364-3.692zm.69 11.892s-1.078-.379-.859-.48c.084-.042.177-.067.27-.11.723.287 1.43.573 2.103.868-1.506-.278-1.514-.278-1.514-.278zm.765-3.11c.564-.859 2.365-1.887 4.763-2.916.934 1.113 1.784 2.301 2.55 3.557-1.793-.329-4.359-.244-5.975-.135-.437-.177-.883-.345-1.338-.506zm3.534 1.425c1.717-.11 3.274.017 4.342.151.539.961 1.027 1.964 1.439 3.009-1.8-1.205-3.753-2.25-5.781-3.16zm9.155-1.231c-1.371-1.618-2.852-3.11-4.392-4.475.833-.295 1.7-.59 2.575-.86 5.402 7.459 7.337 11.85 1.817 5.335zm5.125-3.961c-.808-.919-1.624-1.804-2.449-2.68 1.162-.303 2.298-.565 3.358-.792 4.535 7.602 6.193 11.529-.909 3.472zm5.209-4.256c-1.128-2.149-3.282-5.166-5.857-8.462 1.927-.683 3.189-.986 3.189-.986s-1.304.211-3.357.767c-1.549-1.981-3.248-4.045-4.965-6.093 3.719-2.293 6.378-3.523 6.925-3.776 2.121 8.841 4.233 16.021 4.755 18.626h-.648c-.017-.026-.026-.051-.042-.076zm.067.118c.219-.017.429-.025.631-.025.261 1.298.109 1.424-.631.025zm291.389 90.205c1.65-1.702 3.341-3.101 4.839-4.188-.362 4.509-2.272 8.074-4.46 10.737-.135-2.116-.261-4.307-.379-6.549zm1000.543 36.619c0-.07.01-.16.02-.23 0 0 .01 0 .01.01-.02.07-.03.15-.03.22zm4.65-1.13c-1.2-1.18-1.76-3.16-1.97-5.3.7 1.62 1.43 3.25 2.2 4.86-.08.15-.16.3-.23.44zm4.03-4.5c.13-.22.25-.45.39-.66.4.82.82 1.65 1.25 2.48-.51.52-1.05 1.14-1.56 1.85-.03-1.2-.05-2.42-.08-3.67zm.44 4.78c.32-.86.86-1.74 1.43-2.52.54 1.03 1.08 2.06 1.66 3.1-.57.39-1.04.78-1.42 1.13-.55-.48-1.12-1.05-1.67-1.71zm2.51 2.38c.29-.37.63-.71 1.01-1.03.38.69.78 1.38 1.18 2.08-.72-.16-1.45-.53-2.19-1.05zm4.75-2.39c-.18-.21-.33-.42-.51-.63.26-.12.48-.22.69-.3-.05.32-.11.64-.18.93zm18.27-5.71c.86-1.857 0-5.43 0-5.43s-1.58 5.71-3.71 6c1.93-3.868 3.09-7.914 3.74-11.807 1.62 5.68 1.99 10.012-.03 11.237zm32.87 1.79c.06.75.14 1.49.22 2.2-.05-.29-.12-1.05-.22-2.2zm10.07-1.36c.73-2.118 1.39-4.436 1.97-6.906 1.13 4.206 2.31 7.926 3.47 11.146-1.88 1.04-5.16 1-5.44-4.24zm70.41 34.29l-8.23 4.21c-6.65-.8-13.64-1.74-20.88-2.8-1.22-7.44 12.57-12.01 12.57-12.01-9.76.83-14.79 8.11-14.79 8.11-.52-.42-.88-.9-1.12-1.42 1.39-2.24 2.41-3.95 2.41-3.95l-1.86-1.12c1.89-4.12 6.15-8.25 6.15-8.25s-4.15 2.7-7.46 7.46l-2.4-1.44c.77-2.64 2.38-5.7 4.34-8.77 13.09-2.72 18.35-4.32 18.35-4.32s-9.11 2.1-16.68 1.82c5.31-7.65 11.95-14.67 11.95-14.67s-7.02 6.76-13.5 14.59c-1.46-.13-2.83-.36-4.02-.73 7.73-5.09 16.58-16.186 19.69-20.24 5.6 1.357 12.75-.7 15.48 2.031 2.27 2.276 0 41.499 0 41.499zm-35.41-17.08c.18-.96.43-1.79.82-2.21.34-.07.66-.14 1-.2-.63.8-1.24 1.61-1.82 2.41zm68.74 14.4c-2.28-2.01-1.76-8.94-1.14-13.42 1.6 4.52 2.71 9.78 1.14 13.42zm4.8-1.31c-.62-2.09.08-5.03 1.2-7.92.69 3.08.61 6.02-1.2 7.92z"/>
        <path fill="#7B90A0" d="M532.41 908.761l6.921 40.174 29.315-5.05-1.047-6.077-22.281 3.839-2.026-11.76 20.255-3.49-.988-5.739-20.256 3.49-1.813-10.522 21.888-3.771-1.047-6.076-28.921 4.982zm50.944 1.826c-3.264.562-7.131 4.009-7.391 7.878l-.113.019-.969-5.626-6.021 1.037 5.012 29.089 6.414-1.105-2.423-14.066c-.96-5.571 1.418-10.267 6.2-11.091.9-.155 1.82-.198 2.806-.194l-1.067-6.189c-.985-.004-1.21.034-2.448.248zm19.781-3.408c-3.264.562-7.131 4.009-7.391 7.878l-.113.019-.969-5.626-6.021 1.037 5.012 29.089 6.414-1.105-2.423-14.066c-.96-5.571 1.418-10.267 6.2-11.091.9-.155 1.82-.198 2.806-.194l-1.067-6.189c-.985-.004-1.21.034-2.448.248zm17.827-3.072c-9.115 1.571-13.58 8.945-12.048 17.835 1.57 9.115 8.216 14.401 17.332 12.83 9.115-1.57 13.599-8.832 12.039-17.89-1.532-8.89-8.207-14.345-17.323-12.775zm-5.634 16.73c-.882-5.121.88-10.696 6.451-11.656 5.795-.999 9.199 3.629 10.091 8.806.873 5.064-.814 10.742-6.497 11.721-5.683.979-9.182-3.864-10.045-8.871zm40.282-22.699c-3.264.562-7.131 4.01-7.391 7.878l-.113.02-.969-5.627-6.021 1.037 5.012 29.09 6.414-1.105-2.423-14.067c-.96-5.57 1.417-10.267 6.2-11.091.9-.155 1.82-.198 2.805-.194l-1.066-6.189c-.985-.004-1.211.035-2.448.248zM708.029 838.994l-20.679 51.855 24.969 5.109c3.375-3.506 8.083-4.64 14.795-3.267 8.324 1.703 12.409 7.714 10.761 15.769-1.483 7.249-8.73 11.221-16.785 9.573-7.652-1.566-12.469-6.048-12.469-12.202l-26.447-5.411-.412 2.014c-1.483 7.249.5 14.648 5.897 21.767 5.504 7.28 15.667 12.296 28.286 14.878 26.178 5.356 44.604-4.721 48.615-24.321 4.119-20.137-5.466-34.127-23.992-37.917-8.055-1.648-15.232-1.438-21.398 1.357l-.348-.351 5.212-11.801 43.496 8.899 4.669-22.822-64.17-13.129zm119.696 23.37c-10.874-2.225-21.123.014-30.478 6.772-9.489 6.73-15.854 18.016-18.903 32.917-3.104 15.17-1.734 27.619 4.321 37.669 5.95 9.889 14.764 16.029 25.638 18.253 11.008 2.253 21.391.041 30.746-6.717 9.355-6.757 15.665-17.775 18.769-32.945 2.884-14.096 1.707-27.484-4.187-37.641-5.388-9.215-15.166-16.111-25.906-18.308zm-23.874 44.908c2.197-10.74 6.247-27.115 19.806-24.341 9.531 1.95 12.609 10.832 8.654 30.164-3.982 19.466-10.543 26.236-19.94 24.313-9.129-1.868-12.64-9.999-8.52-30.136zm113.547-26.561c-10.874-2.225-21.123.014-30.478 6.772-9.489 6.73-15.855 18.016-18.903 32.917-3.104 15.17-1.735 27.618 4.321 37.669 5.949 9.889 14.764 16.028 25.638 18.253 11.008 2.252 21.391.041 30.746-6.717s15.665-17.775 18.769-32.945c2.884-14.096 1.707-27.484-4.187-37.642-5.388-9.214-15.167-16.11-25.906-18.307zm-23.874 44.908c2.197-10.74 6.247-27.115 19.806-24.341 9.531 1.95 12.609 10.832 8.654 30.163-3.983 19.466-10.543 26.236-19.94 24.314-9.129-1.868-12.64-9.999-8.52-30.136z"/>
    </g>
</svg>
